REM DIRINDEX 1\6,1\2\7,1\2\8,1\2\9,1\3\10,1\3\11,1\4\12,1\4\13,1\4\14,1\5\15,1\5\16,1\5\17
REM DIRNAME cjc040,folder01,folder02,folder03,folder04,folder05,folder06,folder07,folder08,folder09,folder10,folder11,folder12,folder13,folder14,folder15,folder16
TITLE ""
FILE "P2Q_t_0547-0564.mp3" MP3
  TRACK 01 AUDIO
    TITLE "10:cjc040_2746"
    INDEX 01 00:00:00
  TRACK 02 AUDIO
    TITLE "0:"
    INDEX 01 00:01:19
  TRACK 03 AUDIO
    TITLE "11:cjc040_2747"
    INDEX 01 00:01:71
  TRACK 04 AUDIO
    TITLE "0:"
    INDEX 01 00:03:21
  TRACK 05 AUDIO
    TITLE "10:cjc040_2748"
    INDEX 01 00:04:09
  TRACK 06 AUDIO
    TITLE "0:"
    INDEX 01 00:05:14
  TRACK 07 AUDIO
    TITLE "11:cjc040_2749"
    INDEX 01 00:05:73
  TRACK 08 AUDIO
    TITLE "0:"
    INDEX 01 00:09:06
  TRACK 09 AUDIO
    TITLE "10:cjc040_2750"
    INDEX 01 00:09:67
  TRACK 10 AUDIO
    TITLE "0:"
    INDEX 01 00:11:09
  TRACK 11 AUDIO
    TITLE "11:cjc040_2751"
    INDEX 01 00:11:64
  TRACK 12 AUDIO
    TITLE "0:"
    INDEX 01 00:15:07
  TRACK 13 AUDIO
    TITLE "10:cjc040_2752"
    INDEX 01 00:15:62
  TRACK 14 AUDIO
    TITLE "0:"
    INDEX 01 00:17:18
  TRACK 15 AUDIO
    TITLE "11:cjc040_2753"
    INDEX 01 00:17:72
  TRACK 16 AUDIO
    TITLE "0:"
    INDEX 01 00:19:07
  TRACK 17 AUDIO
    TITLE "10:cjc040_2754"
    INDEX 01 00:19:65
  TRACK 18 AUDIO
    TITLE "0:"
    INDEX 01 00:21:19
  TRACK 19 AUDIO
    TITLE "11:cjc040_2755"
    INDEX 01 00:21:72
  TRACK 20 AUDIO
    TITLE "0:"
    INDEX 01 00:22:64
  TRACK 21 AUDIO
    TITLE "10:cjc040_2756"
    INDEX 01 00:23:46
  TRACK 22 AUDIO
    TITLE "0:"
    INDEX 01 00:24:63
  TRACK 23 AUDIO
    TITLE "11:cjc040_2757"
    INDEX 01 00:25:45
  TRACK 24 AUDIO
    TITLE "0:"
    INDEX 01 00:27:71
  TRACK 25 AUDIO
    TITLE "10:cjc040_2758"
    INDEX 01 00:28:51
  TRACK 26 AUDIO
    TITLE "0:"
    INDEX 01 00:29:50
  TRACK 27 AUDIO
    TITLE "11:cjc040_2759"
    INDEX 01 00:30:34
  TRACK 28 AUDIO
    TITLE "0:"
    INDEX 01 00:33:32
  TRACK 29 AUDIO
    TITLE "10:cjc040_2760"
    INDEX 01 00:34:10
  TRACK 30 AUDIO
    TITLE "0:"
    INDEX 01 00:35:37
  TRACK 31 AUDIO
    TITLE "11:cjc040_2761"
    INDEX 01 00:36:11
  TRACK 32 AUDIO
    TITLE "0:"
    INDEX 01 00:37:34
  TRACK 33 AUDIO
    TITLE "10:cjc040_2762"
    INDEX 01 00:38:12
  TRACK 34 AUDIO
    TITLE "0:"
    INDEX 01 00:39:25
  TRACK 35 AUDIO
    TITLE "11:cjc040_2763"
    INDEX 01 00:40:01
  TRACK 36 AUDIO
    TITLE "0:"
    INDEX 01 00:41:06
  TRACK 37 AUDIO
    TITLE "10:cjc040_2764"
    INDEX 01 00:41:57
  TRACK 38 AUDIO
    TITLE "0:"
    INDEX 01 00:43:11
  TRACK 39 AUDIO
    TITLE "11:cjc040_2765"
    INDEX 01 00:43:62
  TRACK 40 AUDIO
    TITLE "0:"
    INDEX 01 00:44:52
  TRACK 41 AUDIO
    TITLE "10:cjc040_2766"
    INDEX 01 00:45:37
  TRACK 42 AUDIO
    TITLE "0:"
    INDEX 01 00:46:68
  TRACK 43 AUDIO
    TITLE "11:cjc040_2767"
    INDEX 01 00:47:46
  TRACK 44 AUDIO
    TITLE "0:"
    INDEX 01 00:49:47
  TRACK 45 AUDIO
    TITLE "10:cjc040_2768"
    INDEX 01 00:50:23
  TRACK 46 AUDIO
    TITLE "0:"
    INDEX 01 00:51:46
  TRACK 47 AUDIO
    TITLE "11:cjc040_2769"
    INDEX 01 00:52:24
  TRACK 48 AUDIO
    TITLE "0:"
    INDEX 01 00:54:07
  TRACK 49 AUDIO
    TITLE "10:cjc040_2770"
    INDEX 01 00:54:66
  TRACK 50 AUDIO
    TITLE "0:"
    INDEX 01 00:56:04
  TRACK 51 AUDIO
    TITLE "11:cjc040_2771"
    INDEX 01 00:56:51
  TRACK 52 AUDIO
    TITLE "0:"
    INDEX 01 01:01:52
  TRACK 53 AUDIO
    TITLE "10:cjc040_2772"
    INDEX 01 01:02:32
  TRACK 54 AUDIO
    TITLE "0:"
    INDEX 01 01:03:31
  TRACK 55 AUDIO
    TITLE "11:cjc040_2773"
    INDEX 01 01:04:11
  TRACK 56 AUDIO
    TITLE "0:"
    INDEX 01 01:06:30
  TRACK 57 AUDIO
    TITLE "10:cjc040_2774"
    INDEX 01 01:07:10
  TRACK 58 AUDIO
    TITLE "0:"
    INDEX 01 01:08:44
  TRACK 59 AUDIO
    TITLE "11:cjc040_2775"
    INDEX 01 01:09:18
  TRACK 60 AUDIO
    TITLE "0:"
    INDEX 01 01:10:47
  TRACK 61 AUDIO
    TITLE "10:cjc040_2776"
    INDEX 01 01:11:27
  TRACK 62 AUDIO
    TITLE "0:"
    INDEX 01 01:12:48
  TRACK 63 AUDIO
    TITLE "11:cjc040_2777"
    INDEX 01 01:13:28
  TRACK 64 AUDIO
    TITLE "0:"
    INDEX 01 01:15:29
  TRACK 65 AUDIO
    TITLE "10:cjc040_2778"
    INDEX 01 01:16:12
  TRACK 66 AUDIO
    TITLE "0:"
    INDEX 01 01:17:26
  TRACK 67 AUDIO
    TITLE "11:cjc040_2779"
    INDEX 01 01:18:04
  TRACK 68 AUDIO
    TITLE "0:"
    INDEX 01 01:20:14
  TRACK 69 AUDIO
    TITLE "10:cjc040_2780"
    INDEX 01 01:20:67
  TRACK 70 AUDIO
    TITLE "0:"
    INDEX 01 01:21:69
  TRACK 71 AUDIO
    TITLE "11:cjc040_2781"
    INDEX 01 01:22:46
  TRACK 72 AUDIO
    TITLE "0:"
    INDEX 01 01:25:25
